<?xml version="1.0" encoding="UTF-8" standalone="no"?>
<!DOCTYPE svg PUBLIC "-//W3C//DTD SVG 1.1//EN"
 "http://www.w3.org/Graphics/SVG/1.1/DTD/svg11.dtd">
<!-- Generated by graphviz version 2.38.0 (20140413.2041)
 -->
<!-- Title: Tree Pages: 1 -->
<svg width="1124pt" height="373pt"
 viewBox="0.00 0.00 1123.50 373.00" xmlns="http://www.w3.org/2000/svg" xmlns:xlink="http://www.w3.org/1999/xlink">
<g id="graph0" class="graph" transform="scale(1 1) rotate(0) translate(4 369)">
<title>Tree</title>
<polygon fill="white" stroke="none" points="-4,4 -4,-369 1119.5,-369 1119.5,4 -4,4"/>
<!-- 0 -->
<g id="node1" class="node"><title>0</title>
<path fill="#f6d3ba" stroke="black" d="M615,-365C615,-365 503,-365 503,-365 497,-365 491,-359 491,-353 491,-353 491,-309 491,-309 491,-303 497,-297 503,-297 503,-297 615,-297 615,-297 621,-297 627,-303 627,-309 627,-309 627,-353 627,-353 627,-359 621,-365 615,-365"/>
<text text-anchor="start" x="527" y="-349.8" font-family="Helvetica,sans-Serif" font-size="14.00">HDL ≤ 0.0</text>
<text text-anchor="start" x="514.5" y="-334.8" font-family="Helvetica,sans-Serif" font-size="14.00">mse = 6076.4</text>
<text text-anchor="start" x="499" y="-319.8" font-family="Helvetica,sans-Serif" font-size="14.00">samples = 100.0%</text>
<text text-anchor="start" x="516" y="-304.8" font-family="Helvetica,sans-Serif" font-size="14.00">value = 153.7</text>
</g>
<!-- 1 -->
<g id="node2" class="node"><title>1</title>
<path fill="#fae9dc" stroke="black" d="M469,-261C469,-261 365,-261 365,-261 359,-261 353,-255 353,-249 353,-249 353,-205 353,-205 353,-199 359,-193 365,-193 365,-193 469,-193 469,-193 475,-193 481,-199 481,-205 481,-205 481,-249 481,-249 481,-255 475,-261 469,-261"/>
<text text-anchor="start" x="367" y="-245.8" font-family="Helvetica,sans-Serif" font-size="14.00">Glaucoma ≤ 0.0</text>
<text text-anchor="start" x="372.5" y="-230.8" font-family="Helvetica,sans-Serif" font-size="14.00">mse = 3612.7</text>
<text text-anchor="start" x="361" y="-215.8" font-family="Helvetica,sans-Serif" font-size="14.00">samples = 59.2%</text>
<text text-anchor="start" x="374" y="-200.8" font-family="Helvetica,sans-Serif" font-size="14.00">value = 118.0</text>
</g>
<!-- 0&#45;&gt;1 -->
<g id="edge1" class="edge"><title>0&#45;&gt;1</title>
<path fill="none" stroke="black" d="M512.897,-296.884C499.752,-287.442 485.304,-277.064 471.7,-267.292"/>
<polygon fill="black" stroke="black" points="473.522,-264.291 463.358,-261.299 469.438,-269.976 473.522,-264.291"/>
<text text-anchor="middle" x="467.402" y="-282.27" font-family="Helvetica,sans-Serif" font-size="14.00">True</text>
</g>
<!-- 8 -->
<g id="node9" class="node"><title>8</title>
<path fill="#f0b48a" stroke="black" d="M752,-261C752,-261 648,-261 648,-261 642,-261 636,-255 636,-249 636,-249 636,-205 636,-205 636,-199 642,-193 648,-193 648,-193 752,-193 752,-193 758,-193 764,-199 764,-205 764,-205 764,-249 764,-249 764,-255 758,-261 752,-261"/>
<text text-anchor="start" x="668" y="-245.8" font-family="Helvetica,sans-Serif" font-size="14.00">HDL ≤ 0.1</text>
<text text-anchor="start" x="655.5" y="-230.8" font-family="Helvetica,sans-Serif" font-size="14.00">mse = 5119.3</text>
<text text-anchor="start" x="644" y="-215.8" font-family="Helvetica,sans-Serif" font-size="14.00">samples = 40.8%</text>
<text text-anchor="start" x="657" y="-200.8" font-family="Helvetica,sans-Serif" font-size="14.00">value = 205.5</text>
</g>
<!-- 0&#45;&gt;8 -->
<g id="edge8" class="edge"><title>0&#45;&gt;8</title>
<path fill="none" stroke="black" d="M604.779,-296.884C617.831,-287.442 632.177,-277.064 645.685,-267.292"/>
<polygon fill="black" stroke="black" points="647.918,-269.996 653.969,-261.299 643.815,-264.325 647.918,-269.996"/>
<text text-anchor="middle" x="650.007" y="-282.283" font-family="Helvetica,sans-Serif" font-size="14.00">False</text>
</g>
<!-- 2 -->
<g id="node3" class="node"><title>2</title>
<path fill="#fdf3ec" stroke="black" d="M262,-157C262,-157 158,-157 158,-157 152,-157 146,-151 146,-145 146,-145 146,-101 146,-101 146,-95 152,-89 158,-89 158,-89 262,-89 262,-89 268,-89 274,-95 274,-101 274,-101 274,-145 274,-145 274,-151 268,-157 262,-157"/>
<text text-anchor="start" x="157.5" y="-141.8" font-family="Helvetica,sans-Serif" font-size="14.00">Glaucoma ≤ &#45;0.0</text>
<text text-anchor="start" x="165.5" y="-126.8" font-family="Helvetica,sans-Serif" font-size="14.00">mse = 2378.3</text>
<text text-anchor="start" x="154" y="-111.8" font-family="Helvetica,sans-Serif" font-size="14.00">samples = 43.1%</text>
<text text-anchor="start" x="167" y="-96.8" font-family="Helvetica,sans-Serif" font-size="14.00">value = 100.6</text>
</g>
<!-- 1&#45;&gt;2 -->
<g id="edge2" class="edge"><title>1&#45;&gt;2</title>
<path fill="none" stroke="black" d="M352.922,-194.425C330.902,-183.575 306.083,-171.345 283.382,-160.159"/>
<polygon fill="black" stroke="black" points="284.649,-156.882 274.132,-155.601 281.555,-163.161 284.649,-156.882"/>
</g>
<!-- 5 -->
<g id="node6" class="node"><title>5</title>
<path fill="#f5cdb0" stroke="black" d="M469,-157C469,-157 365,-157 365,-157 359,-157 353,-151 353,-145 353,-145 353,-101 353,-101 353,-95 359,-89 365,-89 365,-89 469,-89 469,-89 475,-89 481,-95 481,-101 481,-101 481,-145 481,-145 481,-151 475,-157 469,-157"/>
<text text-anchor="start" x="386.5" y="-141.8" font-family="Helvetica,sans-Serif" font-size="14.00">BMI ≤ 0.1</text>
<text text-anchor="start" x="372.5" y="-126.8" font-family="Helvetica,sans-Serif" font-size="14.00">mse = 3915.5</text>
<text text-anchor="start" x="361" y="-111.8" font-family="Helvetica,sans-Serif" font-size="14.00">samples = 16.1%</text>
<text text-anchor="start" x="374" y="-96.8" font-family="Helvetica,sans-Serif" font-size="14.00">value = 164.7</text>
</g>
<!-- 1&#45;&gt;5 -->
<g id="edge5" class="edge"><title>1&#45;&gt;5</title>
<path fill="none" stroke="black" d="M417,-192.884C417,-184.778 417,-175.982 417,-167.472"/>
<polygon fill="black" stroke="black" points="420.5,-167.299 417,-157.299 413.5,-167.299 420.5,-167.299"/>
</g>
<!-- 3 -->
<g id="node4" class="node"><title>3</title>
<path fill="#ffffff" stroke="black" d="M116,-53C116,-53 12,-53 12,-53 6,-53 0,-47 0,-41 0,-41 0,-12 0,-12 0,-6 6,-0 12,-0 12,-0 116,-0 116,-0 122,-0 128,-6 128,-12 128,-12 128,-41 128,-41 128,-47 122,-53 116,-53"/>
<text text-anchor="start" x="19.5" y="-37.8" font-family="Helvetica,sans-Serif" font-size="14.00">mse = 1425.4</text>
<text text-anchor="start" x="8" y="-22.8" font-family="Helvetica,sans-Serif" font-size="14.00">samples = 13.9%</text>
<text text-anchor="start" x="25" y="-7.8" font-family="Helvetica,sans-Serif" font-size="14.00">value = 80.9</text>
</g>
<!-- 2&#45;&gt;3 -->
<g id="edge3" class="edge"><title>2&#45;&gt;3</title>
<path fill="none" stroke="black" d="M158.936,-88.9485C143.814,-79.1601 127.306,-68.4756 112.36,-58.8015"/>
<polygon fill="black" stroke="black" points="114.059,-55.7322 103.763,-53.2367 110.256,-61.6087 114.059,-55.7322"/>
</g>
<!-- 4 -->
<g id="node5" class="node"><title>4</title>
<path fill="#fbeee4" stroke="black" d="M262,-53C262,-53 158,-53 158,-53 152,-53 146,-47 146,-41 146,-41 146,-12 146,-12 146,-6 152,-0 158,-0 158,-0 262,-0 262,-0 268,-0 274,-6 274,-12 274,-12 274,-41 274,-41 274,-47 268,-53 262,-53"/>
<text text-anchor="start" x="165.5" y="-37.8" font-family="Helvetica,sans-Serif" font-size="14.00">mse = 2559.7</text>
<text text-anchor="start" x="154" y="-22.8" font-family="Helvetica,sans-Serif" font-size="14.00">samples = 29.2%</text>
<text text-anchor="start" x="167" y="-7.8" font-family="Helvetica,sans-Serif" font-size="14.00">value = 109.9</text>
</g>
<!-- 2&#45;&gt;4 -->
<g id="edge4" class="edge"><title>2&#45;&gt;4</title>
<path fill="none" stroke="black" d="M210,-88.9485C210,-80.7153 210,-71.848 210,-63.4814"/>
<polygon fill="black" stroke="black" points="213.5,-63.2367 210,-53.2367 206.5,-63.2367 213.5,-63.2367"/>
</g>
<!-- 6 -->
<g id="node7" class="node"><title>6</title>
<path fill="#f5d0b5" stroke="black" d="M408,-53C408,-53 304,-53 304,-53 298,-53 292,-47 292,-41 292,-41 292,-12 292,-12 292,-6 298,-0 304,-0 304,-0 408,-0 408,-0 414,-0 420,-6 420,-12 420,-12 420,-41 420,-41 420,-47 414,-53 408,-53"/>
<text text-anchor="start" x="311.5" y="-37.8" font-family="Helvetica,sans-Serif" font-size="14.00">mse = 3601.6</text>
<text text-anchor="start" x="300" y="-22.8" font-family="Helvetica,sans-Serif" font-size="14.00">samples = 15.3%</text>
<text text-anchor="start" x="313" y="-7.8" font-family="Helvetica,sans-Serif" font-size="14.00">value = 159.6</text>
</g>
<!-- 5&#45;&gt;6 -->
<g id="edge6" class="edge"><title>5&#45;&gt;6</title>
<path fill="none" stroke="black" d="M395.665,-88.9485C389.996,-80.1664 383.862,-70.6629 378.15,-61.815"/>
<polygon fill="black" stroke="black" points="380.977,-59.7402 372.613,-53.2367 375.096,-63.5365 380.977,-59.7402"/>
</g>
<!-- 7 -->
<g id="node8" class="node"><title>7</title>
<path fill="#e9965a" stroke="black" d="M545.5,-53C545.5,-53 450.5,-53 450.5,-53 444.5,-53 438.5,-47 438.5,-41 438.5,-41 438.5,-12 438.5,-12 438.5,-6 444.5,-0 450.5,-0 450.5,-0 545.5,-0 545.5,-0 551.5,-0 557.5,-6 557.5,-12 557.5,-12 557.5,-41 557.5,-41 557.5,-47 551.5,-53 545.5,-53"/>
<text text-anchor="start" x="457.5" y="-37.8" font-family="Helvetica,sans-Serif" font-size="14.00">mse = 696.2</text>
<text text-anchor="start" x="446.5" y="-22.8" font-family="Helvetica,sans-Serif" font-size="14.00">samples = 0.8%</text>
<text text-anchor="start" x="455" y="-7.8" font-family="Helvetica,sans-Serif" font-size="14.00">value = 256.3</text>
</g>
<!-- 5&#45;&gt;7 -->
<g id="edge7" class="edge"><title>5&#45;&gt;7</title>
<path fill="none" stroke="black" d="M445.33,-88.9485C453.093,-79.892 461.513,-70.0682 469.296,-60.9875"/>
<polygon fill="black" stroke="black" points="472.089,-63.1071 475.94,-53.2367 466.775,-58.5515 472.089,-63.1071"/>
</g>
<!-- 9 -->
<g id="node10" class="node"><title>9</title>
<path fill="#f1bd97" stroke="black" d="M768,-157C768,-157 632,-157 632,-157 626,-157 620,-151 620,-145 620,-145 620,-101 620,-101 620,-95 626,-89 632,-89 632,-89 768,-89 768,-89 774,-89 780,-95 780,-101 780,-101 780,-145 780,-145 780,-151 774,-157 768,-157"/>
<text text-anchor="start" x="628" y="-141.8" font-family="Helvetica,sans-Serif" font-size="14.00">Total Cholesterol ≤ 0.0</text>
<text text-anchor="start" x="655.5" y="-126.8" font-family="Helvetica,sans-Serif" font-size="14.00">mse = 4557.3</text>
<text text-anchor="start" x="644" y="-111.8" font-family="Helvetica,sans-Serif" font-size="14.00">samples = 33.4%</text>
<text text-anchor="start" x="657" y="-96.8" font-family="Helvetica,sans-Serif" font-size="14.00">value = 191.1</text>
</g>
<!-- 8&#45;&gt;9 -->
<g id="edge9" class="edge"><title>8&#45;&gt;9</title>
<path fill="none" stroke="black" d="M700,-192.884C700,-184.778 700,-175.982 700,-167.472"/>
<polygon fill="black" stroke="black" points="703.5,-167.299 700,-157.299 696.5,-167.299 703.5,-167.299"/>
</g>
<!-- 12 -->
<g id="node13" class="node"><title>12</title>
<path fill="#e78d4c" stroke="black" d="M966.5,-157C966.5,-157 871.5,-157 871.5,-157 865.5,-157 859.5,-151 859.5,-145 859.5,-145 859.5,-101 859.5,-101 859.5,-95 865.5,-89 871.5,-89 871.5,-89 966.5,-89 966.5,-89 972.5,-89 978.5,-95 978.5,-101 978.5,-101 978.5,-145 978.5,-145 978.5,-151 972.5,-157 966.5,-157"/>
<text text-anchor="start" x="891.5" y="-141.8" font-family="Helvetica,sans-Serif" font-size="14.00">BP ≤ 0.0</text>
<text text-anchor="start" x="874.5" y="-126.8" font-family="Helvetica,sans-Serif" font-size="14.00">mse = 2428.3</text>
<text text-anchor="start" x="867.5" y="-111.8" font-family="Helvetica,sans-Serif" font-size="14.00">samples = 7.4%</text>
<text text-anchor="start" x="876" y="-96.8" font-family="Helvetica,sans-Serif" font-size="14.00">value = 271.1</text>
</g>
<!-- 8&#45;&gt;12 -->
<g id="edge12" class="edge"><title>8&#45;&gt;12</title>
<path fill="none" stroke="black" d="M764.227,-196.086C791.215,-183.516 822.656,-168.873 850.123,-156.08"/>
<polygon fill="black" stroke="black" points="851.686,-159.213 859.274,-151.818 848.731,-152.867 851.686,-159.213"/>
</g>
<!-- 10 -->
<g id="node11" class="node"><title>10</title>
<path fill="#f3c6a6" stroke="black" d="M692,-53C692,-53 588,-53 588,-53 582,-53 576,-47 576,-41 576,-41 576,-12 576,-12 576,-6 582,-0 588,-0 588,-0 692,-0 692,-0 698,-0 704,-6 704,-12 704,-12 704,-41 704,-41 704,-47 698,-53 692,-53"/>
<text text-anchor="start" x="595.5" y="-37.8" font-family="Helvetica,sans-Serif" font-size="14.00">mse = 4005.6</text>
<text text-anchor="start" x="584" y="-22.8" font-family="Helvetica,sans-Serif" font-size="14.00">samples = 24.1%</text>
<text text-anchor="start" x="597" y="-7.8" font-family="Helvetica,sans-Serif" font-size="14.00">value = 175.8</text>
</g>
<!-- 9&#45;&gt;10 -->
<g id="edge10" class="edge"><title>9&#45;&gt;10</title>
<path fill="none" stroke="black" d="M679.015,-88.9485C673.439,-80.1664 667.405,-70.6629 661.787,-61.815"/>
<polygon fill="black" stroke="black" points="664.656,-59.8028 656.341,-53.2367 658.746,-63.5549 664.656,-59.8028"/>
</g>
<!-- 11 -->
<g id="node12" class="node"><title>11</title>
<path fill="#eda572" stroke="black" d="M829.5,-53C829.5,-53 734.5,-53 734.5,-53 728.5,-53 722.5,-47 722.5,-41 722.5,-41 722.5,-12 722.5,-12 722.5,-6 728.5,-0 734.5,-0 734.5,-0 829.5,-0 829.5,-0 835.5,-0 841.5,-6 841.5,-12 841.5,-12 841.5,-41 841.5,-41 841.5,-47 835.5,-53 829.5,-53"/>
<text text-anchor="start" x="737.5" y="-37.8" font-family="Helvetica,sans-Serif" font-size="14.00">mse = 3821.9</text>
<text text-anchor="start" x="730.5" y="-22.8" font-family="Helvetica,sans-Serif" font-size="14.00">samples = 9.3%</text>
<text text-anchor="start" x="739" y="-7.8" font-family="Helvetica,sans-Serif" font-size="14.00">value = 230.5</text>
</g>
<!-- 9&#45;&gt;11 -->
<g id="edge11" class="edge"><title>9&#45;&gt;11</title>
<path fill="none" stroke="black" d="M728.68,-88.9485C736.538,-79.892 745.062,-70.0682 752.942,-60.9875"/>
<polygon fill="black" stroke="black" points="755.757,-63.0835 759.668,-53.2367 750.47,-58.4958 755.757,-63.0835"/>
</g>
<!-- 13 -->
<g id="node14" class="node"><title>13</title>
<path fill="#e58139" stroke="black" d="M966.5,-53C966.5,-53 871.5,-53 871.5,-53 865.5,-53 859.5,-47 859.5,-41 859.5,-41 859.5,-12 859.5,-12 859.5,-6 865.5,-0 871.5,-0 871.5,-0 966.5,-0 966.5,-0 972.5,-0 978.5,-6 978.5,-12 978.5,-12 978.5,-41 978.5,-41 978.5,-47 972.5,-53 966.5,-53"/>
<text text-anchor="start" x="878.5" y="-37.8" font-family="Helvetica,sans-Serif" font-size="14.00">mse = 962.8</text>
<text text-anchor="start" x="867.5" y="-22.8" font-family="Helvetica,sans-Serif" font-size="14.00">samples = 5.1%</text>
<text text-anchor="start" x="876" y="-7.8" font-family="Helvetica,sans-Serif" font-size="14.00">value = 291.2</text>
</g>
<!-- 12&#45;&gt;13 -->
<g id="edge13" class="edge"><title>12&#45;&gt;13</title>
<path fill="none" stroke="black" d="M919,-88.9485C919,-80.7153 919,-71.848 919,-63.4814"/>
<polygon fill="black" stroke="black" points="922.5,-63.2367 919,-53.2367 915.5,-63.2367 922.5,-63.2367"/>
</g>
<!-- 14 -->
<g id="node15" class="node"><title>14</title>
<path fill="#eda877" stroke="black" d="M1103.5,-53C1103.5,-53 1008.5,-53 1008.5,-53 1002.5,-53 996.5,-47 996.5,-41 996.5,-41 996.5,-12 996.5,-12 996.5,-6 1002.5,-0 1008.5,-0 1008.5,-0 1103.5,-0 1103.5,-0 1109.5,-0 1115.5,-6 1115.5,-12 1115.5,-12 1115.5,-41 1115.5,-41 1115.5,-47 1109.5,-53 1103.5,-53"/>
<text text-anchor="start" x="1011.5" y="-37.8" font-family="Helvetica,sans-Serif" font-size="14.00">mse = 2757.9</text>
<text text-anchor="start" x="1004.5" y="-22.8" font-family="Helvetica,sans-Serif" font-size="14.00">samples = 2.3%</text>
<text text-anchor="start" x="1013" y="-7.8" font-family="Helvetica,sans-Serif" font-size="14.00">value = 225.8</text>
</g>
<!-- 12&#45;&gt;14 -->
<g id="edge14" class="edge"><title>12&#45;&gt;14</title>
<path fill="none" stroke="black" d="M966.916,-88.9485C980.974,-79.2516 996.307,-68.6752 1010.23,-59.073"/>
<polygon fill="black" stroke="black" points="1012.44,-61.7959 1018.69,-53.2367 1008.47,-56.0337 1012.44,-61.7959"/>
</g>
</g>
</svg>
